<mxfile host="app.diagrams.net" modified="2020-11-27T12:34:57.723Z" agent="5.0 (Macintosh; Intel Mac OS X 10_15_7) AppleWebKit/537.36 (KHTML, like Gecko) Chrome/86.0.4240.111 Safari/537.36" etag="QZO0Q0hLpi7ATddl6bnD" version="13.10.3" type="github">
  <diagram name="Page-1" id="e7e014a7-5840-1c2e-5031-d8a46d1fe8dd">
    <mxGraphModel dx="1538" dy="970" grid="1" gridSize="10" guides="1" tooltips="1" connect="1" arrows="1" fold="1" page="1" pageScale="1" pageWidth="1169" pageHeight="826" background="#ffffff" math="0" shadow="0">
      <root>
        <mxCell id="0" />
        <mxCell id="1" parent="0" />
        <mxCell id="2" value="Customer" style="swimlane;whiteSpace=wrap" parent="1" vertex="1">
          <mxGeometry x="164.5" y="128" width="280" height="570" as="geometry" />
        </mxCell>
        <mxCell id="5" value="" style="ellipse;shape=startState;fillColor=#000000;strokeColor=#ff0000;" parent="2" vertex="1">
          <mxGeometry x="100" y="40" width="30" height="30" as="geometry" />
        </mxCell>
        <mxCell id="6" value="" style="edgeStyle=elbowEdgeStyle;elbow=horizontal;verticalAlign=bottom;endArrow=open;endSize=8;strokeColor=#FF0000;endFill=1;rounded=0" parent="2" source="5" target="7" edge="1">
          <mxGeometry x="100" y="40" as="geometry">
            <mxPoint x="115" y="110" as="targetPoint" />
          </mxGeometry>
        </mxCell>
        <mxCell id="7" value="informs the server what they want to order" style="whiteSpace=wrap;" parent="2" vertex="1">
          <mxGeometry x="65.5" y="102" width="150" height="60" as="geometry" />
        </mxCell>
        <mxCell id="3" value="Server" style="swimlane;whiteSpace=wrap" parent="1" vertex="1">
          <mxGeometry x="445" y="128" width="280" height="570" as="geometry" />
        </mxCell>
        <mxCell id="13" value="" style="ellipse;shape=startState;fillColor=#000000;strokeColor=#ff0000;" parent="3" vertex="1">
          <mxGeometry x="60" y="40" width="30" height="30" as="geometry" />
        </mxCell>
        <mxCell id="14" value="" style="edgeStyle=elbowEdgeStyle;elbow=horizontal;verticalAlign=bottom;endArrow=open;endSize=8;strokeColor=#FF0000;endFill=1;rounded=0" parent="3" source="13" target="15" edge="1">
          <mxGeometry x="40" y="20" as="geometry">
            <mxPoint x="55" y="90" as="targetPoint" />
          </mxGeometry>
        </mxCell>
        <mxCell id="15" value="Checks stock available" style="whiteSpace=wrap;" parent="3" vertex="1">
          <mxGeometry x="20" y="107" width="110" height="50" as="geometry" />
        </mxCell>
        <mxCell id="17" value="" style="endArrow=open;strokeColor=#FF0000;endFill=1;rounded=0;entryX=0.5;entryY=0;entryDx=0;entryDy=0;" parent="3" source="15" target="21" edge="1">
          <mxGeometry relative="1" as="geometry">
            <mxPoint x="75" y="220" as="targetPoint" />
          </mxGeometry>
        </mxCell>
        <mxCell id="19" value="" style="endArrow=open;strokeColor=#FF0000;endFill=1;rounded=0;entryX=0.5;entryY=0;entryDx=0;entryDy=0;" parent="3" target="jlcxwPzsKEOOzYtI_J5P-50" edge="1">
          <mxGeometry relative="1" as="geometry">
            <mxPoint x="75" y="230" as="sourcePoint" />
            <mxPoint x="75.5" y="262" as="targetPoint" />
          </mxGeometry>
        </mxCell>
        <mxCell id="21" value="meal avaialble" style="rhombus;fillColor=#ffffc0;strokeColor=#ff0000;" parent="3" vertex="1">
          <mxGeometry x="25" y="172" width="100" height="65" as="geometry" />
        </mxCell>
        <mxCell id="jlcxwPzsKEOOzYtI_J5P-47" value="NO" style="text;html=1;strokeColor=none;fillColor=none;align=center;verticalAlign=middle;whiteSpace=wrap;rounded=0;" vertex="1" parent="3">
          <mxGeometry x="35" y="252" width="40" height="20" as="geometry" />
        </mxCell>
        <mxCell id="jlcxwPzsKEOOzYtI_J5P-50" value="suggest alternative" style="whiteSpace=wrap;" vertex="1" parent="3">
          <mxGeometry x="35" y="272" width="80" height="50" as="geometry" />
        </mxCell>
        <mxCell id="jlcxwPzsKEOOzYtI_J5P-51" value="" style="endArrow=open;strokeColor=#FF0000;endFill=1;rounded=0;exitX=1;exitY=0.5;exitDx=0;exitDy=0;entryX=0.5;entryY=0;entryDx=0;entryDy=0;" edge="1" parent="3" source="21" target="jlcxwPzsKEOOzYtI_J5P-52">
          <mxGeometry relative="1" as="geometry">
            <mxPoint x="145" y="215" as="sourcePoint" />
            <mxPoint x="195" y="252" as="targetPoint" />
            <Array as="points">
              <mxPoint x="215" y="205" />
            </Array>
          </mxGeometry>
        </mxCell>
        <mxCell id="jlcxwPzsKEOOzYtI_J5P-52" value="place order" style="whiteSpace=wrap;" vertex="1" parent="3">
          <mxGeometry x="175" y="252" width="80" height="50" as="geometry" />
        </mxCell>
        <mxCell id="jlcxwPzsKEOOzYtI_J5P-53" value="YES" style="text;html=1;strokeColor=none;fillColor=none;align=center;verticalAlign=middle;whiteSpace=wrap;rounded=0;" vertex="1" parent="3">
          <mxGeometry x="175" y="182" width="40" height="20" as="geometry" />
        </mxCell>
        <mxCell id="jlcxwPzsKEOOzYtI_J5P-41" value="&lt;b&gt;&lt;font style=&quot;font-size: 24px&quot;&gt;customer orders a meal at a restaurant&lt;/font&gt;&lt;/b&gt;" style="text;html=1;strokeColor=none;fillColor=none;align=center;verticalAlign=middle;whiteSpace=wrap;rounded=0;" vertex="1" parent="1">
          <mxGeometry x="160" y="90" width="550" height="20" as="geometry" />
        </mxCell>
        <mxCell id="jlcxwPzsKEOOzYtI_J5P-45" value="" style="endArrow=open;strokeColor=#FF0000;endFill=1;rounded=0;exitX=1;exitY=0.5;exitDx=0;exitDy=0;entryX=0;entryY=0.5;entryDx=0;entryDy=0;" edge="1" parent="1" source="7" target="15">
          <mxGeometry relative="1" as="geometry">
            <mxPoint x="529.5" y="289.9999999999999" as="sourcePoint" />
            <mxPoint x="529.5" y="358" as="targetPoint" />
          </mxGeometry>
        </mxCell>
        <mxCell id="12" value="" style="edgeStyle=elbowEdgeStyle;elbow=horizontal;strokeColor=#FF0000;endArrow=open;endFill=1;rounded=0;exitX=0;exitY=0.5;exitDx=0;exitDy=0;" parent="1" source="jlcxwPzsKEOOzYtI_J5P-50" target="7" edge="1">
          <mxGeometry width="100" height="100" relative="1" as="geometry">
            <mxPoint x="224.5" y="478" as="sourcePoint" />
            <mxPoint x="424.5" y="318" as="targetPoint" />
            <Array as="points">
              <mxPoint x="194.5" y="378" />
            </Array>
          </mxGeometry>
        </mxCell>
      </root>
    </mxGraphModel>
  </diagram>
</mxfile>
